<svg version="1.1" id="Layer_1" x="0px" y="0px"
	 viewBox="0 0 1080 1080" style="enable-background:new 0 0 1080 1080;">
<style type="text/css">
	.st0{fill:#FFFFFF;}
</style>
<g>
	<path d="M329.23,567.078H314.7V510.57h12.997l19.939,32.856l19.536-32.856h12.917l0.161,56.508h-14.531l-0.081-30.191
		l-14.692,24.621h-7.023l-14.692-23.895V567.078z"/>
	<path d="M405.032,567.078h-16.146l25.025-56.508h15.5l25.025,56.508h-16.387l-16.549-41.09L405.032,567.078z"/>
	<path d="M514.012,561.023c-3.229,2.369-6.942,4.157-11.14,5.368s-8.369,1.816-12.512,1.816c-4.468,0-8.598-0.727-12.392-2.18
		c-3.794-1.453-7.078-3.471-9.849-6.054c-2.772-2.584-4.938-5.678-6.499-9.284c-1.562-3.604-2.341-7.561-2.341-11.867
		c0-4.305,0.78-8.26,2.341-11.867c1.56-3.605,3.74-6.7,6.539-9.283c2.798-2.583,6.108-4.602,9.93-6.055
		c3.82-1.453,8.018-2.18,12.593-2.18c5.273,0,9.996,0.875,14.167,2.624c4.17,1.75,7.655,4.292,10.454,7.629l-10.01,9.122
		c-3.822-4.198-8.423-6.297-13.804-6.297c-2.422,0-4.642,0.391-6.66,1.17c-2.019,0.781-3.741,1.885-5.167,3.31
		c-1.427,1.427-2.53,3.136-3.31,5.126c-0.781,1.992-1.17,4.226-1.17,6.7c0,2.422,0.39,4.629,1.17,6.62
		c0.78,1.992,1.883,3.701,3.31,5.126c1.425,1.427,3.121,2.543,5.085,3.351c1.964,0.807,4.158,1.211,6.579,1.211
		c1.506,0,2.973-0.134,4.4-0.404c1.425-0.269,2.866-0.753,4.319-1.452v-15.662h13.965V561.023z"/>
	<path d="M528.462,510.57h25.59c3.875,0,7.359,0.484,10.454,1.453c3.094,0.969,5.731,2.355,7.911,4.157
		c2.18,1.804,3.848,3.983,5.005,6.539c1.157,2.557,1.736,5.449,1.736,8.678s-0.579,6.123-1.736,8.678
		c-1.157,2.557-2.825,4.736-5.005,6.539c-2.18,1.804-4.817,3.188-7.911,4.157c-3.095,0.969-6.579,1.453-10.454,1.453h-9.849v14.854
		h-15.822v-27.286h24.783c3.391,0,5.919-0.739,7.588-2.22c1.668-1.479,2.503-3.538,2.503-6.176c0-2.636-0.835-4.695-2.503-6.175
		c-1.669-1.479-4.197-2.22-7.588-2.22h-24.783L528.462,510.57z"/>
	<path d="M591.024,567.078V510.57h15.822v56.508H591.024z"/>
	<path d="M622.346,510.57h44.157v12.271h-44.157V510.57z M622.346,532.527h44.157v11.786h-44.157V532.527z M622.346,567.078h44.157
		v-12.271h-44.157V567.078z"/>
	<path d="M723.575,567.078h-15.5V510.57h12.997l25.187,30.434V510.57h15.419v56.508h-12.997l-25.105-30.434V567.078z"/>
	<path d="M777.178,510.57h44.157v12.271h-44.157V510.57z M777.178,532.527h44.157v11.786h-44.157V532.527z M777.178,567.078h44.157
		v-12.271h-44.157V567.078z"/>
	<path d="M855.159,568.208c-4.629,0-9.069-0.564-13.319-1.695c-4.252-1.13-7.724-2.636-10.414-4.521l5.247-11.705
		c2.529,1.723,5.449,3.081,8.759,4.076c3.31,0.997,6.605,1.494,9.889,1.494c3.391,0,5.785-0.431,7.185-1.292
		c1.399-0.86,2.1-1.99,2.1-3.391c0-1.13-0.458-2.044-1.373-2.744c-0.915-0.699-2.126-1.292-3.632-1.776
		c-1.508-0.484-3.229-0.929-5.167-1.332s-3.902-0.86-5.893-1.372c-1.992-0.511-3.956-1.157-5.894-1.938
		c-1.938-0.779-3.66-1.789-5.166-3.027c-1.508-1.237-2.719-2.771-3.633-4.602c-0.916-1.829-1.372-4.063-1.372-6.7
		c0-2.529,0.511-4.896,1.533-7.104c1.021-2.206,2.569-4.129,4.642-5.772c2.071-1.641,4.669-2.946,7.79-3.915
		s6.781-1.453,10.979-1.453c3.659,0,7.277,0.417,10.857,1.251c3.578,0.835,6.74,2.086,9.485,3.753L873,526.069
		c-2.745-1.453-5.423-2.529-8.032-3.229c-2.611-0.699-5.181-1.05-7.71-1.05c-3.391,0-5.771,0.499-7.144,1.494
		c-1.373,0.997-2.059,2.193-2.059,3.592c0,1.453,0.793,2.557,2.381,3.31c1.587,0.754,3.564,1.413,5.934,1.978
		c2.367,0.565,4.951,1.158,7.75,1.776c2.798,0.619,5.381,1.548,7.749,2.785c2.368,1.239,4.346,2.894,5.934,4.964
		c1.587,2.072,2.382,4.831,2.382,8.274c0,2.477-0.513,4.817-1.534,7.023c-1.022,2.207-2.583,4.145-4.682,5.813
		c-2.1,1.669-4.71,2.986-7.831,3.955S859.357,568.208,855.159,568.208z"/>
	<path d="M903.514,567.078v-43.996h-17.355V510.57h50.534v12.513h-17.356v43.996H903.514z"/>
</g>
<path d="M204.811,566.876c-12.304,0.49-49.369,0-49.369,0h-5.826V490.97h7.123v68.951h43.375c0,0,22.491-0.652,27.834-24.105
	c-0.323,0.615-10.97,20.686-30.421,19.569c-19.749-1.129-28.975,0-28.975,0s13.805-28.478,38.083-38.821
	c4.151-1.768,7.929-4.312,11.013-7.607c1.7-1.818,3.574-4.076,5.454-6.818c2.804-4.102,7.079-5.392,10.963-5.553
	c6.124-0.261,12.074,2.487,15.791,7.358c0.279,0.366,0.533,0.732,0.763,1.104l7.116,3.078c0,0-4.368,2.147-9.065,2.264
	c-6.471,0.162-9.871,9.388-9.871,9.388s-2.264,3.561-6.149,17.155c-3.883,13.6-7.283,18.452-7.283,18.452
	S217.115,566.392,204.811,566.876"/>
<path d="M276.349,490.97v76.123H218.61c0,0,5.95-1.992,9.834-7.173h40.298v-68.95H276.349z"/>
<path class="st0" d="M242.361,504.322c0,0.939-0.761,1.699-1.699,1.699c-0.939,0-1.7-0.76-1.7-1.699c0-0.939,0.761-1.699,1.7-1.699
	C241.6,502.623,242.361,503.383,242.361,504.322"/>
<path d="M174.867,569.307c0,0-12.139,23.793-10.682,30.105l3.884,6.636c0,0,4.532-23.631,11.977-35.446L174.867,569.307z"/>
<path d="M172.055,568.659c0,0-8.356,14.729-18.553,45.967c0,0-10.52-17.157-5.827-28.001c4.694-10.844,13.596-20.394,13.596-20.394
	L172.055,568.659z"/>
<path d="M142.658,487.408l71.055-46.241l68.141,46.241h-21.877c-17.383-11.472-37.615-24.923-46.264-30.328l-49.501,30.328H142.658z
	"/>
<g>
	<path d="M649.099,596.595v3.566h-16.715v9.732h15.941v3.566h-15.941v13.943h-4.275v-30.809H649.099z"/>
	<path d="M673.314,596.595h4.275v30.809h-4.275V596.595z"/>
	<path d="M707.113,596.595l16.371,24.32v-24.32h4.275v30.809h-4.877l-16.371-24.32v24.32h-4.275v-30.809H707.113z"/>
	<path d="M763.427,596.595h3.695l13.17,30.809h-4.533l-3.674-8.787h-13.621l-3.674,8.787h-4.533L763.427,596.595z M770.603,615.05
		l-5.328-12.74l-5.328,12.74H770.603z"/>
	<path d="M807.71,596.595l16.371,24.32v-24.32h4.275v30.809h-4.877l-16.371-24.32v24.32h-4.275v-30.809H807.71z"/>
	<path d="M851.929,611.999c0-9.604,6.273-15.834,15.877-15.834c3.695,0,7.713,0.773,10.613,3.223l-2.105,2.879
		c-2.492-1.805-5.457-2.535-8.508-2.535c-7.348,0-11.301,5.264-11.301,12.268s3.953,12.268,11.301,12.268
		c3.051,0,6.016-0.73,8.508-2.535l2.105,2.879c-2.9,2.449-6.918,3.223-10.613,3.223
		C858.202,627.833,851.929,621.603,851.929,611.999z"/>
	<path d="M922.551,596.595v3.566h-16.715v9.732h15.941v3.566h-15.941v10.377h16.93v3.566h-21.205v-30.809H922.551z"/>
</g>
<polygon points="246.109,466.249 246.109,449.957 260.196,449.957 260.196,477.739 "/>
</svg>
